<svg version="1.1" viewBox="0 0 275.3 158.59" xmlns="http://www.w3.org/2000/svg" xmlns:xlink="http://www.w3.org/1999/xlink">
 <defs>
  <linearGradient id="linearGradient931" x1="83.491" x2="99.207" y1="95.011" y2="59.464" gradientTransform="matrix(.99947 0 0 1.3191 2.8182 -21.052)" gradientUnits="userSpaceOnUse">
   <stop stop-color="#690" stop-opacity=".81452" offset="0"/>
   <stop stop-color="#fff" offset="1"/>
  </linearGradient>
  <linearGradient id="linearGradient939" x1="97.863" x2="145.24" y1="138.38" y2="138.38" gradientTransform="matrix(.99947 0 0 1.3191 2.7275 -19.775)" gradientUnits="userSpaceOnUse">
   <stop stop-color="#690" stop-opacity=".86694" offset="0"/>
   <stop stop-color="#fff" offset="1"/>
  </linearGradient>
  <linearGradient id="linearGradient947" x1="71.232" x2="14.076" y1="114.88" y2="117.15" gradientTransform="matrix(.99947 0 0 1.3191 .2178 -20.13)" gradientUnits="userSpaceOnUse">
   <stop stop-color="#690" stop-opacity=".8871" offset="0"/>
   <stop stop-color="#f7fff1" offset="1"/>
  </linearGradient>
 </defs>
 <g transform="translate(353.67 314.49)">
  <g transform="matrix(.67857 0 0 .67998 -273.34 -344.82)">
   <path d="m77.788 199.29c5.586-15.506 4.6779-36.644 4.4548-53.316-.0055-.40752-.52422-2.0675-.70552-2.674-2.8489-9.531-37.981-14.663-47.678-11.235 9.4759-4.6675 44.193 1.172 47.592 5.4416.35074.44061.87796-.0926.90477-.60198.62548-11.882-3.4325-34.938 12.091-72.143-14.293 44.47-9.596 80.42-8.1756 83.4.57788 1.2125.39229 1.8221.87206 1.463 1.8518-1.3862 6.2599-4.5799 10.512-6.274 5.3533-2.133 21.027-10.259 36.845-4.0475-19.039-4.3982-30.809 2.8858-35.069 5.4239-4.8246 2.8744-10.441 8.457-12.272 10.525-.36934.41703-.83514.39668-.83894 1.0251-.02406 3.9798-.78538 30.609 3.5128 43.039l.16827.52441c40.176-2.9311 72.047-36.318 72.047-77.247 0-42.855-34.736-77.595-77.586-77.595-42.849 0-77.586 34.74-77.586 77.595-2.1e-6 40.113 31.592 73.084 70.627 77.142z" fill="none" stop-color="#000000" stroke="#291b00" stroke-width=".79375"/>
   <path d="m50.999 140.68c5.0995.70643 16.896.35912 18.571-4.55 2.606-7.6393-5.7469-14.41-15.543-16.87-9.7965-2.4604-25.41 7.4719-29.691 13.889-.00085.00076-3.5093 4.4226 1.4652 3.6422 6.9077-1.0836 9.6013-.22089 15.045 1.7245 2.653.9481 7.862 1.8471 10.153 2.1646z" fill="url(#linearGradient947)" stop-color="#000000" stroke="#003400" stroke-width=".4557"/>
   <path d="m117.14 149.15c-5.0995.70643-16.896.35913-18.571-4.55-2.606-7.6393 5.7469-14.41 15.543-16.87 9.7965-2.4604 25.41 7.4719 29.691 13.889.00085.00076 3.5093 4.4226-1.4652 3.6422-6.9077-1.0836-9.6013-.22089-15.045 1.7245-2.653.9481-7.862 1.8471-10.153 2.1646z" fill="url(#linearGradient939)" stop-color="#000000" stroke="#003400" stroke-width=".4557"/>
   <path d="m100.27 89.646c-1.5034 6.4699-11.119 19.914-15.197 20.026-6.3465.17498-9.6427-13.686-7.5239-26.547 2.1189-12.861 14.829-23.313 20.979-26.001.000945-.000843 3.244-2.9137 1.966 3.2051-1.8486 8.8508.24691 10.235.68729 17.744.21212 3.6167-.2357 8.6656-.91124 11.573z" fill="url(#linearGradient931)" stop-color="#000000" stroke="#003400" stroke-width=".4557"/>
  </g>
  <text transform="scale(.88836 1.1257)" x="-399.68173" y="-139.34416" fill="#8cb23f" fill-opacity=".85882" font-family="Arial" font-size="25.307px" stroke="#291b00" stroke-width=".54507" style="line-height:1.25" xml:space="preserve"><tspan x="-399.68173" y="-139.34416" fill="#8cb23f" fill-opacity=".85882" font-family="'Fredoka One'" font-size="46.747px" stroke="#291b00" stroke-width=".54507">Natura Biotek</tspan></text>
 </g>
</svg>
